<svg xmlns="http://www.w3.org/2000/svg" viewBox="0 0 64 64">
  <rect width="64" height="64" rx="14" fill="#030912"/>
  <defs><linearGradient id="fin" x1="14" y1="10" x2="54" y2="49" gradientUnits="userSpaceOnUse"><stop stop-color="#26D9DF"/><stop offset="1" stop-color="#77F1D2"/></linearGradient></defs>
  <path fill="url(#fin)" d="M9 43c8-5 13-13 16-26l2-8c12 5 22 14 28 26 2 4 5 7 9 9-11 2-20 0-28-5-8-4-15-4-27 4Z"/>
  <path fill="none" stroke="#03101B" stroke-width="3" stroke-linecap="round" stroke-linejoin="round" d="m25 23 7 6h9l6 6"/><circle cx="25" cy="23" r="3" fill="#03101B"/><circle cx="47" cy="35" r="3" fill="#03101B"/>
  <path fill="none" stroke="#77F1D2" stroke-width="4" stroke-linecap="round" d="M6 50c9-5 17-5 26 0s17 5 26 0"/><path fill="none" stroke="#26D9DF" stroke-width="2.5" stroke-linecap="round" opacity=".8" d="M11 57c7-3 14-3 21 0s14 3 21 0"/>
</svg>
