<svg xmlns="http://www.w3.org/2000/svg" viewBox="0 0 96 72" role="img" aria-labelledby="title">
  <title id="title">Shark AI digital fin</title>
  <defs><linearGradient id="fin" x1="22" y1="10" x2="76" y2="60" gradientUnits="userSpaceOnUse"><stop stop-color="#26D9DF"/><stop offset="1" stop-color="#77F1D2"/></linearGradient></defs>
  <path fill="url(#fin)" d="M17 52c10-6 17-17 21-34 1-4 2-8 2-12 17 7 31 18 40 34 4 7 9 12 16 15-17 3-29 0-41-7-11-7-22-7-38 4Z"/>
  <path fill="none" stroke="#B7FFF0" stroke-width="1.5" stroke-linecap="round" opacity=".72" d="M27 43c6-7 10-17 13-30 14 7 25 16 34 28"/>
  <g fill="none" stroke="#03101B" stroke-width="2.6" stroke-linecap="round" stroke-linejoin="round">
    <path d="m37 20 8 9-11 8 13 8M45 29l11-3 6 10 10 7M34 37l12-1 10-10M46 36l10 8 6-8M47 45l15-9"/>
  </g>
  <g fill="#03101B">
    <circle cx="37" cy="20" r="3.6"/><circle cx="45" cy="29" r="3.6"/><circle cx="34" cy="37" r="3.6"/><circle cx="47" cy="45" r="3.6"/><circle cx="56" cy="26" r="3.6"/><circle cx="46" cy="36" r="3.6"/><circle cx="56" cy="44" r="3.6"/><circle cx="62" cy="36" r="3.6"/><circle cx="72" cy="43" r="3.6"/>
  </g>
  <g fill="#8DFFE7">
    <circle cx="37" cy="20" r="1.3"/><circle cx="45" cy="29" r="1.3"/><circle cx="34" cy="37" r="1.3"/><circle cx="47" cy="45" r="1.3"/><circle cx="56" cy="26" r="1.3"/><circle cx="46" cy="36" r="1.3"/><circle cx="56" cy="44" r="1.3"/><circle cx="62" cy="36" r="1.3"/><circle cx="72" cy="43" r="1.3"/>
  </g>
  <path fill="none" stroke="#77F1D2" stroke-width="5" stroke-linecap="round" d="M6 58c12-7 24-7 36 0s24 7 36 0"/><path fill="none" stroke="#26D9DF" stroke-width="3" stroke-linecap="round" opacity=".9" d="M12 66c10-5 20-5 30 0s20 5 30 0"/>
</svg>
